<svg width="22" height="22" viewBox="0 0 22 22" fill="none" xmlns="http://www.w3.org/2000/svg">
<g clip-path="url(#clip0_35_168)">
<path d="M11.4764 4.75347C11.3433 4.75347 11.2155 4.70067 11.1212 4.60665C11.0269 4.51262 10.9738 4.38504 10.9734 4.25187C10.9734 3.3187 11.3441 2.42375 12.0039 1.76389C12.6638 1.10404 13.5587 0.733337 14.4919 0.733337C14.7706 0.733337 14.9935 0.959204 14.9935 1.2364C14.9927 2.16856 14.6221 3.06232 13.963 3.72145C13.3038 4.38059 12.4101 4.75123 11.4779 4.752L11.4764 4.75347ZM18.8142 15.3369C19.0078 15.4821 19.0708 15.7476 18.9608 15.9632C17.1935 19.5037 15.7811 21.2667 14.4919 21.2667C13.892 21.2667 13.3024 21.0731 12.7275 20.6947C12.3168 20.4242 11.8381 20.2751 11.3465 20.2644C10.8549 20.2538 10.3702 20.3821 9.94817 20.6345C9.25297 21.0511 8.58857 21.2667 7.95937 21.2667C6.06151 21.2667 2.93311 15.4264 2.93311 12.2203C2.93311 8.8 4.72684 6.18934 7.45631 6.18934C8.73964 6.18934 9.84844 6.38 10.7798 6.76134C11.1743 6.9256 11.6202 6.91387 12.0059 6.72907C12.7612 6.36534 13.7571 6.18934 14.995 6.18934C16.5056 6.18934 17.8198 6.94174 18.9139 8.40107C18.994 8.50768 19.0284 8.64171 19.0097 8.77371C18.991 8.90571 18.9207 9.02489 18.8142 9.10507C17.5924 10.0203 17.0043 11.0499 17.0043 12.2203C17.0043 13.3921 17.5924 14.4203 18.8142 15.3369Z" stroke="#1E1E1E" stroke-width="1.6"/>
</g>
<defs>
<clipPath id="clip0_35_168">
<rect width="22" height="22" fill="white"/>
</clipPath>
</defs>
</svg>
