<svg width="27" height="26" viewBox="0 0 27 26" fill="none" xmlns="http://www.w3.org/2000/svg">
<path d="M14.8571 8.55556H20L19.4286 11H14.8571V22H12.5714V11H8V8.55556H12.5714V6.26756C12.5714 4.08833 12.784 3.29756 13.1817 2.50067C13.5714 1.71332 14.1735 1.06946 14.9097 0.652667C15.6549 0.227333 16.3943 0 18.432 0C19.0286 0 19.552 0.0611112 20 0.183333V2.44444H18.432C16.9189 2.44444 16.4583 2.53978 15.9874 2.80867C15.6495 2.99751 15.3738 3.29272 15.1977 3.65444C14.9463 4.15678 14.8571 4.64933 14.8571 6.26756V8.55556Z" fill="#1E1E1E"/>
</svg>
