<svg width="25" height="25" viewBox="0 0 25 25" fill="none" xmlns="http://www.w3.org/2000/svg">
<g clip-path="url(#clip0_35_162)">
<path fill-rule="evenodd" clip-rule="evenodd" d="M13 4.22127C11.5092 4.22165 10.05 4.65045 8.79599 5.45661C7.54201 6.26278 6.54612 7.41234 5.9269 8.76842C5.30769 10.1245 5.09125 11.63 5.30334 13.1056C5.51543 14.5812 6.14712 15.9647 7.1232 17.0915C8.09929 18.2183 9.37863 19.0409 10.8089 19.4612C12.2392 19.8816 13.7601 19.882 15.1907 19.4625C16.6212 19.043 17.901 18.2212 18.8778 17.095C19.8545 15.9688 20.487 14.5856 20.7 13.1101H14.1111C13.8164 13.1101 13.5338 12.9931 13.3254 12.7847C13.1171 12.5763 13 12.2937 13 11.999C13 11.7043 13.1171 11.4217 13.3254 11.2134C13.5338 11.005 13.8164 10.8879 14.1111 10.8879H21.8889C22.1836 10.8879 22.4662 11.005 22.6746 11.2134C22.8829 11.4217 23 11.7043 23 11.999C23.0002 14.3114 22.1991 16.5524 20.7329 18.3405C19.2667 20.1287 17.2261 21.3534 14.9585 21.8063C12.6909 22.2592 10.3365 21.9122 8.29589 20.8245C6.25533 19.7367 4.65482 17.9754 3.7668 15.8403C2.87877 13.7052 2.75813 11.3284 3.4254 9.11437C4.09267 6.90035 5.50661 4.98601 7.42654 3.69721C9.34646 2.40842 11.6537 1.82482 13.9555 2.04577C16.2573 2.26672 18.4114 3.27856 20.0511 4.90904C20.2542 5.11801 20.367 5.39839 20.3654 5.68977C20.3637 5.98115 20.2476 6.26021 20.0422 6.46683C19.8367 6.67346 19.5583 6.7911 19.2669 6.79442C18.9756 6.79775 18.6946 6.68648 18.4844 6.4846C17.7637 5.76561 16.9084 5.19567 15.9674 4.80732C15.0264 4.41897 14.018 4.21983 13 4.22127Z" fill="#1E1E1E"/>
</g>
<defs>
<clipPath id="clip0_35_162">
<rect width="25" height="25" fill="white"/>
</clipPath>
</defs>
</svg>
